<?xml version="1.0" encoding="UTF-8"?>
<svg id="Layer_1" data-name="Layer 1" xmlns="http://www.w3.org/2000/svg" viewBox="0 0 595.28 595.28">
  <defs>
    <style>
      .cls-1 {
        fill: #fff;
      }

      .cls-2 {
        stroke: #fff;
        stroke-miterlimit: 10;
      }
    </style>
  </defs>
  <rect class="cls-2" x="-13.59" y="-13.6" width="628.33" height="618.15"/>
  <g>
    <path class="cls-1" d="m187.95,365.2c-21.22-18.66-31.42-42.14-29.84-64.47-1.11-33.39,22.18-61.95,50.02-77.61,13.22-7.67,27.44-13.52,42.15-17.52,14.7-3.99,30.1-6.2,45.72-5.38l-8.72,6.24s10.48-36.2,10.48-36.2c1.26-4.53,5.96-7.19,10.5-5.92,1.35.38,2.52,1.05,3.49,1.94l23.64,21.07s-7.24-2.19-7.24-2.19c12.64-1.59,25.24-1.52,37.9.33,12.96,1.96,26.31,6.37,36.69,14.9,0,0-8.63-1.4-8.63-1.4.03-.02,29.99-12.01,30.04-12.02,4.68-1.76,9.9.6,11.66,5.28.59,1.55.71,3.21.45,4.74l-6.75,38.96c-.83,4.78-5.38,7.99-10.16,7.16-4.74-.82-7.93-5.3-7.18-10.03l6.16-39.06,12.24,9.97s-30.21,11.19-30.21,11.19c-2.99,1.11-6.2.5-8.54-1.33-8-6.47-18.25-9.54-28.36-11.06-10.08-1.46-20.62-1.51-30.8-.42-3.33.66-6.65.33-9.1-1.95,0,0-23.29-21.46-23.29-21.46,0,0,13.99-3.98,13.98-3.98l-10.34,36.24c-1.1,3.86-4.68,6.36-8.52,6.25-23.54-.92-47.85,5.82-68.97,16.39-2.47,1.35-6.66,3.5-9.05,4.99-21.78,12.73-40.18,33.86-40.13,59.82,0,0,.04.64.04.64l.04.66c.02.32.02.65,0,.97-.52,9.35,1.43,18.5,5.69,26.84,4.24,8.37,10.64,15.9,18.15,22.45,9.66,9.11-2.86,23.42-13.19,14.96h0Z"/>
    <path class="cls-1" d="m295.35,258.8c11.38-11.55,27.17-18.27,42.96-20.72,15.26-2.32,30.84-.53,45.43,3.78,5.21,1.44,10.64,3.58,15.63,5.59,5.95,2.51,10.84,5.79,15.71,9.75,16.96,13.72,24.77,34.54,25.16,51.24.9,6.38.22,12.94-1.18,19.15-3.89,17.28-15.47,32.6-28.93,43.18-21.83,17.42-49.27,25.65-76.49,29.32-9.41,1.28-18.91,1.68-28.4,1.76-6.77,0-13.56.45-20.31-.33-10.8-.97-21.42-3.11-31.94-5.42-5.28-1.11-10.56-2-15.88-3.68l-1.99-.58-.99-.29-.5-.14-.15-.05c-4.22-1.56-8.15-3.46-12.06-5.55-9.63-5.65-2.73-19.88,7.66-15.82,3.32,1.45,6.77,2.91,10.12,4.16,4.53,1.25,9.39,2.7,13.94,4.04,12.11,3.36,24.69,4.49,37.12,5.46,3.67.24,7.57.86,11.21,1,14.93.48,30-1.29,44.56-4.39,14.33-3.28,28.45-7.77,40.98-15.34,15.81-9.38,30.03-23.28,34.1-41.42.98-4.31,1.31-9.02.74-13.06-.77-21.4-13.81-40.21-34.25-47.07-20.44-7.7-43.67-10.09-63.5-.66-5.01,2.34-10.21,5.71-13.88,9.39-3.67,4.1-9.98,4.45-14.08.78-4.1-3.67-4.45-9.98-.78-14.08h0Z"/>
    <path class="cls-1" d="m230.26,384.77l-60.41,46.06c-4.42,3.37-10.73,2.52-14.1-1.9-2.43-3.19-2.66-7.37-.94-10.72l33.18-64.27c2.17-4.21,7.35-5.86,11.56-3.69,4.1,2.12,5.77,7.09,3.85,11.24l-30.43,65.61-15.03-12.62,62.34-43.41c9.25-5.96,18.47,6.68,9.98,13.69h0Z"/>
    <path class="cls-1" d="m199.2,350.64l1.17-1.2-5.55,8.45.25.16-.25-.16-5.55,8.45c2.25-5.89,5.74-11.4,9.94-15.7h0Z"/>
  </g>
</svg>