<?xml version="1.0" encoding="UTF-8"?>
<svg id="Layer_1" data-name="Layer 1" xmlns="http://www.w3.org/2000/svg" viewBox="0 0 595.28 595.28">
  <defs>
    <style>
      .cls-1 {
        fill: none;
        stroke: #000;
        stroke-linecap: round;
        stroke-linejoin: round;
        stroke-width: 20px;
      }
    </style>
  </defs>
  <path id="blackat" class="cls-1" d="m302.87,264.87s31.96-35.69,94.83-9.26c0,0,34.05,13.14,35.84,54.66,0,0,6.57,37.63-43.16,65.41,0,0-61.53,37.11-155.16,8.66,0,0-4.52-1.62-11.27-4.93h0s-62.5,45.55-62.5,45.55l32.39-66.13-.03-.03c-5-3.93-13.73-11.87-20.06-24.79-6.96-14.2-7.45-27.16-7.26-33.62,0,0-4.93-45.4,53.76-74.97,0,0,36.14-20.16,76.46-18.22l10.6-36.89,23.89,21.65s44.5-6.72,68.99,13.44l30.61-11.8c-2.19,13.24-4.38,26.48-6.57,39.72"/>
</svg>